<svg xmlns="http://www.w3.org/2000/svg" xmlns:xlink="http://www.w3.org/1999/xlink" width="1658" zoomAndPan="magnify" viewBox="0 0 1243.5 1243.500007" height="1658" preserveAspectRatio="xMidYMid meet" version="1.0"><defs><g/><clipPath id="d3e6222122"><path d="M 442.78125 636.921875 L 495.539062 636.921875 L 495.539062 689.679688 L 442.78125 689.679688 Z M 442.78125 636.921875 " clip-rule="nonzero"/></clipPath><clipPath id="c5d1656189"><path d="M 451.027344 636.921875 L 487.292969 636.921875 C 491.847656 636.921875 495.539062 640.613281 495.539062 645.167969 L 495.539062 681.433594 C 495.539062 685.988281 491.847656 689.679688 487.292969 689.679688 L 451.027344 689.679688 C 446.472656 689.679688 442.78125 685.988281 442.78125 681.433594 L 442.78125 645.167969 C 442.78125 640.613281 446.472656 636.921875 451.027344 636.921875 Z M 451.027344 636.921875 " clip-rule="nonzero"/></clipPath><clipPath id="f421f39c8d"><path d="M 441.28125 445.179688 L 494.039062 445.179688 L 494.039062 497.941406 L 441.28125 497.941406 Z M 441.28125 445.179688 " clip-rule="nonzero"/></clipPath><clipPath id="6e520e1280"><path d="M 449.527344 445.179688 L 485.792969 445.179688 C 490.347656 445.179688 494.039062 448.875 494.039062 453.429688 L 494.039062 489.691406 C 494.039062 494.246094 490.347656 497.941406 485.792969 497.941406 L 449.527344 497.941406 C 444.972656 497.941406 441.28125 494.246094 441.28125 489.691406 L 441.28125 453.429688 C 441.28125 448.875 444.972656 445.179688 449.527344 445.179688 Z M 449.527344 445.179688 " clip-rule="nonzero"/></clipPath><clipPath id="75c05b3e80"><path d="M 602.878906 445.179688 L 655.636719 445.179688 L 655.636719 497.941406 L 602.878906 497.941406 Z M 602.878906 445.179688 " clip-rule="nonzero"/></clipPath><clipPath id="9d6accabf4"><path d="M 611.125 445.179688 L 647.390625 445.179688 C 651.945312 445.179688 655.636719 448.875 655.636719 453.429688 L 655.636719 489.691406 C 655.636719 494.246094 651.945312 497.941406 647.390625 497.941406 L 611.125 497.941406 C 606.570312 497.941406 602.878906 494.246094 602.878906 489.691406 L 602.878906 453.429688 C 602.878906 448.875 606.570312 445.179688 611.125 445.179688 Z M 611.125 445.179688 " clip-rule="nonzero"/></clipPath><clipPath id="8405278c63"><path d="M 741.738281 567.304688 L 801.222656 567.304688 L 801.222656 621.5 L 741.738281 621.5 Z M 741.738281 567.304688 " clip-rule="nonzero"/></clipPath><clipPath id="81a0211517"><path d="M 771.441406 567.304688 L 801.140625 621.5 L 741.738281 621.5 Z M 771.441406 567.304688 " clip-rule="nonzero"/></clipPath><clipPath id="96788d567f"><path d="M 741.738281 745.285156 L 801.199219 745.285156 L 801.199219 797.59375 L 741.738281 797.59375 Z M 741.738281 745.285156 " clip-rule="nonzero"/></clipPath><clipPath id="b6ef5a853b"><path d="M 771.441406 745.285156 L 801.140625 797.59375 L 741.738281 797.59375 Z M 771.441406 745.285156 " clip-rule="nonzero"/></clipPath><clipPath id="1cd5be4708"><path d="M 604.378906 745.285156 L 657.300781 745.285156 L 657.300781 797.59375 L 604.378906 797.59375 Z M 604.378906 745.285156 " clip-rule="nonzero"/></clipPath><clipPath id="5039555a7b"><path d="M 630.757812 745.285156 L 657.136719 797.59375 L 604.378906 797.59375 Z M 630.757812 745.285156 " clip-rule="nonzero"/></clipPath></defs><g fill="#ff5757" fill-opacity="1"><g transform="translate(432.858501, 631.239458)"><g><path d="M 44.015625 -127.90625 L 68.171875 -35.40625 L 92.25 -127.90625 L 125.984375 -127.90625 L 125.984375 0 L 100.0625 0 L 100.0625 -34.609375 L 102.4375 -87.9375 L 76.875 0 L 59.296875 0 L 33.734375 -87.9375 L 36.109375 -34.609375 L 36.109375 0 L 10.28125 0 L 10.28125 -127.90625 Z M 44.015625 -127.90625 "/></g></g><g transform="translate(569.297775, 631.239458)"><g><path d="M 36.109375 -21.4375 L 81.4375 -21.4375 L 81.4375 0 L 10.28125 0 L 10.28125 -127.90625 L 36.109375 -127.90625 Z M 36.109375 -21.4375 "/></g></g></g><g fill="#ffffff" fill-opacity="1"><g transform="translate(413.873677, 724.524102)"><g><path d="M 72.03125 72.03125 L 32.5625 32.5625 L 273.84375 -208.71875 L 313.3125 -169.25 Z M 380.4375 -230.125 C 373.75 -223.4375 366.3125 -219.71875 358.125 -218.96875 C 349.945312 -218.226562 342.066406 -221.648438 334.484375 -229.234375 C 327.046875 -236.671875 323.703125 -244.476562 324.453125 -252.65625 C 325.203125 -260.832031 328.921875 -268.265625 335.609375 -274.953125 C 342.296875 -281.640625 349.800781 -285.429688 358.125 -286.328125 C 366.445312 -287.222656 374.328125 -283.953125 381.765625 -276.515625 C 389.203125 -269.078125 392.472656 -261.117188 391.578125 -252.640625 C 390.691406 -244.171875 386.976562 -236.664062 380.4375 -230.125 Z M 380.4375 -230.125 "/></g></g></g><g clip-path="url(#d3e6222122)"><g clip-path="url(#c5d1656189)"><path fill="#00bf63" d="M 442.78125 636.921875 L 495.539062 636.921875 L 495.539062 689.679688 L 442.78125 689.679688 Z M 442.78125 636.921875 " fill-opacity="1" fill-rule="nonzero"/></g></g><g clip-path="url(#f421f39c8d)"><g clip-path="url(#6e520e1280)"><path fill="#00bf63" d="M 441.28125 445.179688 L 494.039062 445.179688 L 494.039062 497.941406 L 441.28125 497.941406 Z M 441.28125 445.179688 " fill-opacity="1" fill-rule="nonzero"/></g></g><g clip-path="url(#75c05b3e80)"><g clip-path="url(#9d6accabf4)"><path fill="#00bf63" d="M 602.878906 445.179688 L 655.636719 445.179688 L 655.636719 497.941406 L 602.878906 497.941406 Z M 602.878906 445.179688 " fill-opacity="1" fill-rule="nonzero"/></g></g><g fill="#ff914d" fill-opacity="1"><g transform="translate(646.71092, 751.155379)"><g><path d="M 14.796875 0 L 14.796875 -76.53125 L 3.265625 -76.53125 L 3.265625 -95.28125 L 14.796875 -95.28125 L 14.796875 -103.828125 C 14.859375 -114.335938 17.628906 -122.515625 23.109375 -128.359375 C 28.597656 -134.203125 36.1875 -137.125 45.875 -137.125 C 48.8125 -137.125 52.570312 -136.535156 57.15625 -135.359375 L 56.984375 -115.453125 C 55.273438 -115.984375 53.25 -116.25 50.90625 -116.25 C 43.507812 -116.25 39.8125 -111.84375 39.8125 -103.03125 L 39.8125 -95.28125 L 54.6875 -95.28125 L 54.6875 -76.53125 L 39.8125 -76.53125 L 39.8125 0 Z M 14.796875 0 "/></g></g></g><g fill="#ff914d" fill-opacity="1"><g transform="translate(705.799989, 751.155379)"><g><path d="M 39.625 -41.484375 L 52.3125 -95.28125 L 78.90625 -95.28125 L 47.5625 14.265625 C 42.863281 30.410156 34.023438 38.484375 21.046875 38.484375 C 18.054688 38.484375 14.648438 37.925781 10.828125 36.8125 L 10.828125 17.34375 L 13.734375 17.4375 C 17.609375 17.4375 20.53125 16.6875 22.5 15.1875 C 24.46875 13.695312 25.953125 11.097656 26.953125 7.390625 L 28.890625 0.96875 L 1.40625 -95.28125 L 28.1875 -95.28125 Z M 39.625 -41.484375 "/></g></g></g><g clip-path="url(#8405278c63)"><g clip-path="url(#81a0211517)"><path fill="#5ce1e6" d="M 741.738281 567.304688 L 801.222656 567.304688 L 801.222656 621.5 L 741.738281 621.5 Z M 741.738281 567.304688 " fill-opacity="1" fill-rule="nonzero"/></g></g><g clip-path="url(#96788d567f)"><g clip-path="url(#b6ef5a853b)"><path fill="#5ce1e6" d="M 741.738281 745.285156 L 801.199219 745.285156 L 801.199219 797.59375 L 741.738281 797.59375 Z M 741.738281 745.285156 " fill-opacity="1" fill-rule="nonzero"/></g></g><g clip-path="url(#1cd5be4708)"><g clip-path="url(#5039555a7b)"><path fill="#0cc0df" d="M 604.378906 745.285156 L 657.097656 745.285156 L 657.097656 797.59375 L 604.378906 797.59375 Z M 604.378906 745.285156 " fill-opacity="1" fill-rule="nonzero"/></g></g></svg>